<svg height="3134" width="720" xmlns="http://www.w3.org/2000/svg">
<rect height="3134" fill="#555" width="720"></rect>
<text fill="#7f7" font-family="Courier New" font-size="12" xml:space="preserve">
<tspan x="10" y="26">34 megabytes installed</tspan>
<tspan x="10" y="42"></tspan>
<tspan x="10" y="58">node_modules</tspan>
<tspan x="10" y="74">└─┬ gulp-kss@0.0.2 </tspan>
<tspan x="10" y="90">  ├─┬ gulp@3.5.6 </tspan>
<tspan x="10" y="106">  │ ├── archy@0.0.2 </tspan>
<tspan x="10" y="122">  │ ├─┬ chalk@0.4.0 </tspan>
<tspan x="10" y="138">  │ │ ├── ansi-styles@1.0.0 </tspan>
<tspan x="10" y="154">  │ │ ├── has-color@0.1.7 </tspan>
<tspan x="10" y="170">  │ │ └── strip-ansi@0.1.1 </tspan>
<tspan x="10" y="186">  │ ├── deprecated@0.0.1 </tspan>
<tspan x="10" y="202">  │ ├─┬ liftoff@0.9.8 </tspan>
<tspan x="10" y="218">  │ │ ├── extend@1.2.1 </tspan>
<tspan x="10" y="234">  │ │ ├─┬ findup-sync@0.1.3 </tspan>
<tspan x="10" y="250">  │ │ │ ├─┬ glob@3.2.11 </tspan>
<tspan x="10" y="266">  │ │ │ │ └─┬ minimatch@0.3.0 </tspan>
<tspan x="10" y="282">  │ │ │ │   ├── lru-cache@2.7.3 </tspan>
<tspan x="10" y="298">  │ │ │ │   └── sigmund@1.0.1 </tspan>
<tspan x="10" y="314">  │ │ │ └── lodash@2.4.2 </tspan>
<tspan x="10" y="330">  │ │ ├── minimist@0.0.10 </tspan>
<tspan x="10" y="346">  │ │ └── resolve@0.6.3 </tspan>
<tspan x="10" y="362">  │ ├─┬ orchestrator@0.3.8 </tspan>
<tspan x="10" y="378">  │ │ ├─┬ end-of-stream@0.1.5 </tspan>
<tspan x="10" y="394">  │ │ │ └─┬ once@1.3.3 </tspan>
<tspan x="10" y="410">  │ │ │   └── wrappy@1.0.2 </tspan>
<tspan x="10" y="426">  │ │ ├── sequencify@0.0.7 </tspan>
<tspan x="10" y="442">  │ │ └── stream-consume@0.1.0 </tspan>
<tspan x="10" y="458">  │ ├── pretty-hrtime@0.2.2 </tspan>
<tspan x="10" y="474">  │ ├── semver@2.3.2 </tspan>
<tspan x="10" y="490">  │ └─┬ vinyl-fs@0.1.4 </tspan>
<tspan x="10" y="506">  │   ├─┬ glob-stream@3.1.18 </tspan>
<tspan x="10" y="522">  │   │ ├─┬ glob@4.5.3 </tspan>
<tspan x="10" y="538">  │   │ │ └── inflight@1.0.6 </tspan>
<tspan x="10" y="554">  │   │ ├─┬ glob2base@0.0.12 </tspan>
<tspan x="10" y="570">  │   │ │ └── find-index@0.1.1 </tspan>
<tspan x="10" y="586">  │   │ ├─┬ minimatch@2.0.10 </tspan>
<tspan x="10" y="602">  │   │ │ └─┬ brace-expansion@1.1.7 </tspan>
<tspan x="10" y="618">  │   │ │   ├── balanced-match@0.4.2 </tspan>
<tspan x="10" y="634">  │   │ │   └── concat-map@0.0.1 </tspan>
<tspan x="10" y="650">  │   │ ├── ordered-read-streams@0.1.0 </tspan>
<tspan x="10" y="666">  │   │ ├─┬ through2@0.6.5 </tspan>
<tspan x="10" y="682">  │   │ │ ├── readable-stream@1.0.34 </tspan>
<tspan x="10" y="698">  │   │ │ └── xtend@4.0.1 </tspan>
<tspan x="10" y="714">  │   │ └── unique-stream@1.0.0 </tspan>
<tspan x="10" y="730">  │   ├─┬ glob-watcher@0.0.6 </tspan>
<tspan x="10" y="746">  │   │ └─┬ gaze@0.5.2 </tspan>
<tspan x="10" y="762">  │   │   └─┬ globule@0.1.0 </tspan>
<tspan x="10" y="778">  │   │     ├─┬ glob@3.1.21 </tspan>
<tspan x="10" y="794">  │   │     │ ├── graceful-fs@1.2.3 </tspan>
<tspan x="10" y="810">  │   │     │ └── inherits@1.0.2 </tspan>
<tspan x="10" y="826">  │   │     ├── lodash@1.0.2 </tspan>
<tspan x="10" y="842">  │   │     └── minimatch@0.2.14 </tspan>
<tspan x="10" y="858">  │   ├── graceful-fs@2.0.3 </tspan>
<tspan x="10" y="874">  │   ├── map-stream@0.1.0 </tspan>
<tspan x="10" y="890">  │   └── mkdirp@0.3.5 </tspan>
<tspan x="10" y="906">  ├─┬ gulp-less@1.2.4 </tspan>
<tspan x="10" y="922">  │ ├─┬ less@1.7.5 </tspan>
<tspan x="10" y="938">  │ │ ├─┬ clean-css@2.2.23 </tspan>
<tspan x="10" y="954">  │ │ │ └── commander@2.2.0 </tspan>
<tspan x="10" y="970">  │ │ ├─┬ graceful-fs@3.0.11 </tspan>
<tspan x="10" y="986">  │ │ │ └── natives@1.1.0 </tspan>
<tspan x="10" y="1002">  │ │ ├── mime@1.2.11 </tspan>
<tspan x="10" y="1018">  │ │ ├─┬ mkdirp@0.5.1 </tspan>
<tspan x="10" y="1034">  │ │ │ └── minimist@0.0.8 </tspan>
<tspan x="10" y="1050">  │ │ ├─┬ request@2.40.0 </tspan>
<tspan x="10" y="1066">  │ │ │ ├── aws-sign2@0.5.0 </tspan>
<tspan x="10" y="1082">  │ │ │ ├── forever-agent@0.5.2 </tspan>
<tspan x="10" y="1098">  │ │ │ ├─┬ form-data@0.1.4 </tspan>
<tspan x="10" y="1114">  │ │ │ │ ├── async@0.9.2 </tspan>
<tspan x="10" y="1130">  │ │ │ │ └─┬ combined-stream@0.0.7 </tspan>
<tspan x="10" y="1146">  │ │ │ │   └── delayed-stream@0.0.5 </tspan>
<tspan x="10" y="1162">  │ │ │ ├─┬ hawk@1.1.1 </tspan>
<tspan x="10" y="1178">  │ │ │ │ ├── boom@0.4.2 </tspan>
<tspan x="10" y="1194">  │ │ │ │ ├── cryptiles@0.2.2 </tspan>
<tspan x="10" y="1210">  │ │ │ │ ├── hoek@0.9.1 </tspan>
<tspan x="10" y="1226">  │ │ │ │ └── sntp@0.2.4 </tspan>
<tspan x="10" y="1242">  │ │ │ ├─┬ http-signature@0.10.1 </tspan>
<tspan x="10" y="1258">  │ │ │ │ ├── asn1@0.1.11 </tspan>
<tspan x="10" y="1274">  │ │ │ │ ├── assert-plus@0.1.5 </tspan>
<tspan x="10" y="1290">  │ │ │ │ └── ctype@0.5.3 </tspan>
<tspan x="10" y="1306">  │ │ │ ├── json-stringify-safe@5.0.1 </tspan>
<tspan x="10" y="1322">  │ │ │ ├── mime-types@1.0.2 </tspan>
<tspan x="10" y="1338">  │ │ │ ├── node-uuid@1.4.8 </tspan>
<tspan x="10" y="1354">  │ │ │ ├── oauth-sign@0.3.0 </tspan>
<tspan x="10" y="1370">  │ │ │ ├── qs@1.0.2 </tspan>
<tspan x="10" y="1386">  │ │ │ ├── stringstream@0.0.5 </tspan>
<tspan x="10" y="1402">  │ │ │ ├─┬ tough-cookie@2.3.2 </tspan>
<tspan x="10" y="1418">  │ │ │ │ └── punycode@1.4.1 </tspan>
<tspan x="10" y="1434">  │ │ │ └── tunnel-agent@0.4.3 </tspan>
<tspan x="10" y="1450">  │ │ └─┬ source-map@0.1.43 </tspan>
<tspan x="10" y="1466">  │ │   └── amdefine@1.0.1 </tspan>
<tspan x="10" y="1482">  │ ├─┬ lodash.defaults@2.4.1 </tspan>
<tspan x="10" y="1498">  │ │ ├── lodash._objecttypes@2.4.1 </tspan>
<tspan x="10" y="1514">  │ │ └─┬ lodash.keys@2.4.1 </tspan>
<tspan x="10" y="1530">  │ │   ├── lodash._isnative@2.4.1 </tspan>
<tspan x="10" y="1546">  │ │   ├── lodash._shimkeys@2.4.1 </tspan>
<tspan x="10" y="1562">  │ │   └── lodash.isobject@2.4.1 </tspan>
<tspan x="10" y="1578">  │ └─┬ through2@0.5.1 </tspan>
<tspan x="10" y="1594">  │   ├─┬ readable-stream@1.0.34 </tspan>
<tspan x="10" y="1610">  │   │ ├── core-util-is@1.0.2 </tspan>
<tspan x="10" y="1626">  │   │ ├── inherits@2.0.3 </tspan>
<tspan x="10" y="1642">  │   │ ├── isarray@0.0.1 </tspan>
<tspan x="10" y="1658">  │   │ └── string_decoder@0.10.31 </tspan>
<tspan x="10" y="1674">  │   └── xtend@3.0.0 </tspan>
<tspan x="10" y="1690">  ├─┬ gulp-util@2.2.20 </tspan>
<tspan x="10" y="1706">  │ ├─┬ chalk@0.5.1 </tspan>
<tspan x="10" y="1722">  │ │ ├── ansi-styles@1.1.0 </tspan>
<tspan x="10" y="1738">  │ │ ├── escape-string-regexp@1.0.5 </tspan>
<tspan x="10" y="1754">  │ │ ├── has-ansi@0.1.0 </tspan>
<tspan x="10" y="1770">  │ │ ├─┬ strip-ansi@0.3.0 </tspan>
<tspan x="10" y="1786">  │ │ │ └── ansi-regex@0.2.1 </tspan>
<tspan x="10" y="1802">  │ │ └── supports-color@0.2.0 </tspan>
<tspan x="10" y="1818">  │ ├─┬ dateformat@1.0.12 </tspan>
<tspan x="10" y="1834">  │ │ ├── get-stdin@4.0.1 </tspan>
<tspan x="10" y="1850">  │ │ └─┬ meow@3.7.0 </tspan>
<tspan x="10" y="1866">  │ │   ├─┬ camelcase-keys@2.1.0 </tspan>
<tspan x="10" y="1882">  │ │   │ └── camelcase@2.1.1 </tspan>
<tspan x="10" y="1898">  │ │   ├── decamelize@1.2.0 </tspan>
<tspan x="10" y="1914">  │ │   ├─┬ loud-rejection@1.6.0 </tspan>
<tspan x="10" y="1930">  │ │   │ ├─┬ currently-unhandled@0.4.1 </tspan>
<tspan x="10" y="1946">  │ │   │ │ └── array-find-index@1.0.2 </tspan>
<tspan x="10" y="1962">  │ │   │ └── signal-exit@3.0.2 </tspan>
<tspan x="10" y="1978">  │ │   ├── map-obj@1.0.1 </tspan>
<tspan x="10" y="1994">  │ │   ├── minimist@1.2.0 </tspan>
<tspan x="10" y="2010">  │ │   ├─┬ normalize-package-data@2.3.6 </tspan>
<tspan x="10" y="2026">  │ │   │ ├── hosted-git-info@2.4.2 </tspan>
<tspan x="10" y="2042">  │ │   │ ├─┬ is-builtin-module@1.0.0 </tspan>
<tspan x="10" y="2058">  │ │   │ │ └── builtin-modules@1.1.1 </tspan>
<tspan x="10" y="2074">  │ │   │ └─┬ validate-npm-package-license@3.0.1 </tspan>
<tspan x="10" y="2090">  │ │   │   ├─┬ spdx-correct@1.0.2 </tspan>
<tspan x="10" y="2106">  │ │   │   │ └── spdx-license-ids@1.2.2 </tspan>
<tspan x="10" y="2122">  │ │   │   └── spdx-expression-parse@1.0.4 </tspan>
<tspan x="10" y="2138">  │ │   ├── object-assign@4.1.1 </tspan>
<tspan x="10" y="2154">  │ │   ├─┬ read-pkg-up@1.0.1 </tspan>
<tspan x="10" y="2170">  │ │   │ ├─┬ find-up@1.1.2 </tspan>
<tspan x="10" y="2186">  │ │   │ │ ├── path-exists@2.1.0 </tspan>
<tspan x="10" y="2202">  │ │   │ │ └─┬ pinkie-promise@2.0.1 </tspan>
<tspan x="10" y="2218">  │ │   │ │   └── pinkie@2.0.4 </tspan>
<tspan x="10" y="2234">  │ │   │ └─┬ read-pkg@1.1.0 </tspan>
<tspan x="10" y="2250">  │ │   │   ├─┬ load-json-file@1.1.0 </tspan>
<tspan x="10" y="2266">  │ │   │   │ ├── graceful-fs@4.1.11 </tspan>
<tspan x="10" y="2282">  │ │   │   │ ├─┬ parse-json@2.2.0 </tspan>
<tspan x="10" y="2298">  │ │   │   │ │ └─┬ error-ex@1.3.1 </tspan>
<tspan x="10" y="2314">  │ │   │   │ │   └── is-arrayish@0.2.1 </tspan>
<tspan x="10" y="2330">  │ │   │   │ ├── pify@2.3.0 </tspan>
<tspan x="10" y="2346">  │ │   │   │ └─┬ strip-bom@2.0.0 </tspan>
<tspan x="10" y="2362">  │ │   │   │   └── is-utf8@0.2.1 </tspan>
<tspan x="10" y="2378">  │ │   │   └── path-type@1.1.0 </tspan>
<tspan x="10" y="2394">  │ │   ├─┬ redent@1.0.0 </tspan>
<tspan x="10" y="2410">  │ │   │ ├─┬ indent-string@2.1.0 </tspan>
<tspan x="10" y="2426">  │ │   │ │ └─┬ repeating@2.0.1 </tspan>
<tspan x="10" y="2442">  │ │   │ │   └─┬ is-finite@1.0.2 </tspan>
<tspan x="10" y="2458">  │ │   │ │     └── number-is-nan@1.0.1 </tspan>
<tspan x="10" y="2474">  │ │   │ └── strip-indent@1.0.1 </tspan>
<tspan x="10" y="2490">  │ │   └── trim-newlines@1.0.0 </tspan>
<tspan x="10" y="2506">  │ ├── lodash._reinterpolate@2.4.1 </tspan>
<tspan x="10" y="2522">  │ ├─┬ lodash.template@2.4.1 </tspan>
<tspan x="10" y="2538">  │ │ ├── lodash._escapestringchar@2.4.1 </tspan>
<tspan x="10" y="2554">  │ │ ├─┬ lodash.escape@2.4.1 </tspan>
<tspan x="10" y="2570">  │ │ │ ├─┬ lodash._escapehtmlchar@2.4.1 </tspan>
<tspan x="10" y="2586">  │ │ │ │ └── lodash._htmlescapes@2.4.1 </tspan>
<tspan x="10" y="2602">  │ │ │ └── lodash._reunescapedhtml@2.4.1 </tspan>
<tspan x="10" y="2618">  │ │ ├── lodash.templatesettings@2.4.1 </tspan>
<tspan x="10" y="2634">  │ │ └── lodash.values@2.4.1 </tspan>
<tspan x="10" y="2650">  │ ├── minimist@0.2.0 </tspan>
<tspan x="10" y="2666">  │ ├─┬ multipipe@0.1.2 </tspan>
<tspan x="10" y="2682">  │ │ └─┬ duplexer2@0.0.2 </tspan>
<tspan x="10" y="2698">  │ │   └── readable-stream@1.1.14 </tspan>
<tspan x="10" y="2714">  │ └─┬ vinyl@0.2.3 </tspan>
<tspan x="10" y="2730">  │   └── clone-stats@0.0.1 </tspan>
<tspan x="10" y="2746">  ├─┬ handlebars@2.0.0 </tspan>
<tspan x="10" y="2762">  │ ├─┬ optimist@0.3.7 </tspan>
<tspan x="10" y="2778">  │ │ └── wordwrap@0.0.3 </tspan>
<tspan x="10" y="2794">  │ └─┬ uglify-js@2.3.6 </tspan>
<tspan x="10" y="2810">  │   └── async@0.2.10 </tspan>
<tspan x="10" y="2826">  ├─┬ kss@0.3.7 </tspan>
<tspan x="10" y="2842">  │ ├── async@0.1.22 </tspan>
<tspan x="10" y="2858">  │ ├─┬ clean-css@0.3.3 </tspan>
<tspan x="10" y="2874">  │ │ └── optimist@0.1.9 </tspan>
<tspan x="10" y="2890">  │ ├─┬ handlebars@1.0.5-beta </tspan>
<tspan x="10" y="2906">  │ │ └── uglify-js@1.2.6 </tspan>
<tspan x="10" y="2922">  │ ├── marked@0.1.9 </tspan>
<tspan x="10" y="2938">  │ ├─┬ natural@0.0.65 </tspan>
<tspan x="10" y="2954">  │ │ ├── apparatus@0.0.9 </tspan>
<tspan x="10" y="2970">  │ │ ├── sylvester@0.0.21 </tspan>
<tspan x="10" y="2986">  │ │ └── underscore@1.8.3 </tspan>
<tspan x="10" y="3002">  │ ├── sass@0.5.0 </tspan>
<tspan x="10" y="3018">  │ ├─┬ stylus@0.30.1 </tspan>
<tspan x="10" y="3034">  │ │ ├── cssom@0.2.5 </tspan>
<tspan x="10" y="3050">  │ │ └─┬ debug@2.6.3 </tspan>
<tspan x="10" y="3066">  │ │   └── ms@0.7.2 </tspan>
<tspan x="10" y="3082">  │ └── wrench@1.3.9 </tspan>
<tspan x="10" y="3098">  ├── marked@0.3.6 </tspan>
<tspan x="10" y="3114">  └── through@2.3.8</tspan>
</text>
</svg>
